
<svg xmlns="http://www.w3.org/2000/svg" width="512" height="512" viewBox="0 0 512 512">
  <defs>
    <linearGradient id="bg" x1="0%" y1="0%" x2="100%" y2="100%">
      <stop offset="0%" style="stop-color:#2563EB"/>
      <stop offset="100%" style="stop-color:#1E40AF"/>
    </linearGradient>
    <filter id="shadow">
      <feDropShadow dx="0" dy="2" stdDeviation="4" flood-opacity="0.2"/>
    </filter>
  </defs>
  
  <!-- Fundo azul -->
  <rect width="512" height="512" rx="90" fill="url(#bg)"/>
  
  <!-- Mapa de papel (fundo branco) -->
  <rect x="56" y="120" width="400" height="320" rx="10" fill="white" filter="url(#shadow)"/>
  
  <!-- Grade do mapa (corredores) -->
  <g opacity="0.3">
    <line x1="156" y1="120" x2="156" y2="440" stroke="#94A3B8" stroke-width="2"/>
    <line x1="256" y1="120" x2="256" y2="440" stroke="#94A3B8" stroke-width="2"/>
    <line x1="356" y1="120" x2="356" y2="440" stroke="#94A3B8" stroke-width="2"/>
    <line x1="56" y1="220" x2="456" y2="220" stroke="#94A3B8" stroke-width="2"/>
    <line x1="56" y1="340" x2="456" y2="340" stroke="#94A3B8" stroke-width="2"/>
  </g>
  
  <!-- Salas (quadrados) -->
  <g>
    <!-- Linha superior de salas -->
    <rect x="80" y="140" width="60" height="60" fill="#E2E8F0" stroke="#94A3B8" stroke-width="1"/>
    <text x="110" y="175" text-anchor="middle" fill="#64748B" font-size="20" font-family="Arial">B1</text>
    
    <rect x="180" y="140" width="60" height="60" fill="#E2E8F0" stroke="#94A3B8" stroke-width="1"/>
    <text x="210" y="175" text-anchor="middle" fill="#64748B" font-size="20" font-family="Arial">B2</text>
    
    <rect x="280" y="140" width="60" height="60" fill="#E2E8F0" stroke="#94A3B8" stroke-width="1"/>
    <text x="310" y="175" text-anchor="middle" fill="#64748B" font-size="20" font-family="Arial">B3</text>
    
    <!-- SALA DESTINO (destacada em verde) -->
    <rect x="372" y="140" width="60" height="60" fill="#10B981" stroke="#059669" stroke-width="3"/>
    <text x="402" y="175" text-anchor="middle" fill="white" font-size="22" font-weight="bold" font-family="Arial">A1</text>
  </g>
  
  <!-- VOCÊ ESTÁ AQUI (pin vermelho pulsante) -->
  <g transform="translate(156, 340)">
    <!-- Sombra do pin -->
    <ellipse cx="0" cy="40" rx="20" ry="6" fill="black" opacity="0.2"/>
    
    <!-- Pin vermelho -->
    <path d="M 0 -30 C -20 -30 -35 -15 -35 5 C -35 25 0 50 0 50 S 35 25 35 5 C 35 -15 20 -30 0 -30 Z" 
          fill="#EF4444" stroke="white" stroke-width="3" filter="url(#shadow)"/>
    
    <!-- Centro do pin -->
    <circle cx="0" cy="0" r="12" fill="white"/>
    <circle cx="0" cy="0" r="8" fill="#EF4444"/>
    
    <!-- Texto "VOCÊ" -->
    <rect x="-35" y="-55" width="70" height="20" rx="10" fill="#EF4444"/>
    <text x="0" y="-42" text-anchor="middle" fill="white" font-size="14" font-weight="bold" font-family="Arial">VOCÊ</text>
  </g>
  
  <!-- Seta animada mostrando o caminho -->
  <g>
    <!-- Caminho pontilhado -->
    <line x1="156" y1="340" x2="402" y2="200" 
          stroke="#3B82F6" stroke-width="3" stroke-dasharray="10,5" opacity="0.5"/>
    
    <!-- Seta grande apontando para a sala -->
    <g transform="translate(320, 240) rotate(-30)">
      <path d="M 0 0 L 40 0 L 40 -10 L 60 10 L 40 30 L 40 20 L 0 20 Z" 
            fill="#3B82F6" opacity="0.8"/>
    </g>
  </g>
  
  <!-- Texto explicativo no topo -->
  <text x="256" y="80" text-anchor="middle" fill="white" font-size="28" font-weight="bold" font-family="Arial">LOCALIZADOR DE SALAS</text>
  
  <!-- Legenda embaixo -->
  <g transform="translate(256, 480)">
    <rect x="-100" y="-15" width="200" height="25" rx="12" fill="white" opacity="0.2"/>
    <text x="0" y="-2" text-anchor="middle" fill="white" font-size="16" font-family="Arial">Encontre sua sala de exame</text>
  </g>
</svg>
