
<svg xmlns="http://www.w3.org/2000/svg" width="512" height="512" viewBox="0 0 512 512">
  <defs>
    <linearGradient id="gpsGrad" x1="0%" y1="0%" x2="100%" y2="100%">
      <stop offset="0%" style="stop-color:#0EA5E9"/>
      <stop offset="100%" style="stop-color:#2563EB"/>
    </linearGradient>
  </defs>
  
  <rect width="512" height="512" rx="90" fill="url(#gpsGrad)"/>
  
  <!-- Tela de GPS/Mapa -->
  <rect x="76" y="106" width="360" height="300" rx="20" fill="#1E293B" stroke="white" stroke-width="4"/>
  
  <!-- Interface do GPS -->
  <rect x="96" y="126" width="320" height="260" fill="#0F172A"/>
  
  <!-- Ruas do mapa -->
  <g stroke="#334155" stroke-width="2">
    <line x1="96" y1="206" x2="416" y2="206"/>
    <line x1="96" y1="306" x2="416" y2="306"/>
    <line x1="196" y1="126" x2="196" y2="386"/>
    <line x1="316" y1="126" x2="316" y2="386"/>
  </g>
  
  <!-- Rota em destaque -->
  <path d="M 196 306 L 196 206 L 316 206" 
        stroke="#10B981" stroke-width="6" fill="none" 
        stroke-linecap="round" stroke-linejoin="round"/>
  
  <!-- Ponto inicial (vermelho) -->
  <g transform="translate(196, 306)">
    <circle cx="0" cy="0" r="15" fill="#EF4444" stroke="white" stroke-width="3"/>
    <circle cx="0" cy="0" r="6" fill="white"/>
  </g>
  
  <!-- Ponto final (verde) com "A1" -->
  <g transform="translate(316, 206)">
    <rect x="-25" y="-25" width="50" height="50" rx="8" fill="#10B981" stroke="white" stroke-width="3"/>
    <text x="0" y="8" text-anchor="middle" fill="white" font-size="24" font-weight="bold" font-family="Arial">A1</text>
  </g>
  
  <!-- Indicador de distância -->
  <rect x="106" y="146" width="120" height="40" rx="20" fill="#3B82F6" opacity="0.9"/>
  <text x="166" y="172" text-anchor="middle" fill="white" font-size="18" font-weight="bold" font-family="Arial">50 metros</text>
  
  <!-- Título na tela -->
  <text x="256" y="60" text-anchor="middle" fill="white" font-size="32" font-weight="bold" font-family="Arial">GPS DE SALAS</text>
  
  <!-- Instrução -->
  <rect x="156" y="430" width="200" height="40" rx="20" fill="white" opacity="0.2"/>
  <text x="256" y="455" text-anchor="middle" fill="white" font-size="20" font-family="Arial">Siga a rota verde</text>
</svg>
